<svg xmlns="http://www.w3.org/2000/svg" xmlns:xlink="http://www.w3.org/1999/xlink" width="74" height="71"><defs><path d="M5.663 56.297c0 .779.387.779.387.779h6.133c1.918 0 1.918 1.557 1.918 1.948l-.001.387h-5.368c-.767 0-3.833 0-3.833 3.308v.392c0 3.308 3.068 3.308 3.833 3.308h6.901v-7.397c0-.392 0-3.505-3.45-3.505h-6.133c0-.001-.386-.001-.386.779zm3.069 8.564c-.767 0-2.3 0-2.3-1.751v-.392c0-1.752 1.533-1.752 2.3-1.752h5.368v3.892l-5.368.003zm11.884 1.557h1.533v-18.295s0-.389-.768-.389l-.768.389v18.295h.004zm7.282 7.783c.771 0 .771-.389.771-.389v-7.394h3.832c1.532 0 5.366 0 5.366-4.671v-1.557c0-4.67-3.833-4.67-5.366-4.67h-5.368v18.295c-.001-.003 0 .386.765.386zm4.597-17.124c1.533 0 3.835 0 3.835 3.113v1.557c0 3.117-2.301 3.117-3.835 3.117h-3.832v-7.785l3.832-.003zm10.352-.779c0 .779.383.779.383.779h6.136c1.913 0 1.913 1.557 1.913 1.948v.387h-5.365c-.767 0-3.835 0-3.835 3.308v.392c0 3.308 3.068 3.308 3.835 3.308h6.897v-7.397c0-.392 0-3.505-3.449-3.505h-6.135c.001-.001-.382-.001-.382.779zm3.066 8.564c-.768 0-2.301 0-2.301-1.751v-.392c0-1.752 1.533-1.752 2.301-1.752h5.365v3.892l-5.365.003zm13.415 1.557h-1.533v-7.395c0-.393 0-3.506 3.451-3.506h2.299s.386 0 .386.782c0 .78-.386.78-.386.78h-2.299c-1.919 0-1.919 1.555-1.919 1.948v7.39zm8.432 0h1.535v-10.51s0-.392-.765-.392c-.773 0-.773.392-.773.392l.004 10.51zm1.919-14.013c0 .779-.192.973-.192.973s-.193.194-.957.194c-.773 0-.958-.194-.958-.194s-.192-.197-.192-.973c0-.778.192-.972.192-.972s.192-.196.958-.196l.958.196s.19.192.19.972z" id="a"/><path d="M72.366 18.981c-.03 0-2.816-.048-4.86-2.122l-7.671-7.785c-1.809-1.833-3.806-1.833-5.613 0l-1.792 1.821-4.86-4.935c-1.8-1.832-3.805-1.833-5.611 0l-1.795 1.824-7.669-7.784-10.732 10.899-1.791-1.822c-1.8-1.824-3.818-1.824-5.616 0l-7.666 7.784c-2.041 2.074-4.831 2.122-4.859 2.122h-1.832v1.454h1.83c.138 0 3.391-.03 5.873-2.548l7.666-7.784c1.258-1.279 2.329-1.279 3.587 0l2.809 2.849 10.729-10.899 7.668 7.784 2.808-2.85c1.242-1.261 2.34-1.268 3.587 0l5.876 5.966 2.806-2.85c1.265-1.283 2.322-1.283 3.588 0l7.666 7.785c2.485 2.519 5.735 2.548 5.872 2.548h1.832v-1.455l-1.832.001z" id="b"/></defs><use xlink:href="#a" fill="#fff"/><use xlink:href="#b" y="21.75" fill="#8bc53f"/><use xlink:href="#b" y="14.5" fill="#bdb532"/><use xlink:href="#b" y="7.25" fill="#d78c2a"/><use xlink:href="#b" fill="#f05a22"/></svg>