<?xml version="1.0" encoding="iso-8859-1"?>
<!-- Generator: Adobe Illustrator 16.0.0, SVG Export Plug-In . SVG Version: 6.00 Build 0)  -->
<!DOCTYPE svg PUBLIC "-//W3C//DTD SVG 1.1//EN" "http://www.w3.org/Graphics/SVG/1.1/DTD/svg11.dtd">
<svg version="1.1" id="Capa_1" xmlns="http://www.w3.org/2000/svg" xmlns:xlink="http://www.w3.org/1999/xlink" x="0px" y="0px"
	 width="439.875px" height="439.875px" viewBox="0 0 439.875 439.875" style="enable-background:new 0 0 439.875 439.875;"
	 xml:space="preserve">
<g>
	<g>
		<path style="fill:#fff;" d="M114.75,153H57.375v38.25v95.625H76.5V229.5h38.25c21.038,0,38.25-17.213,38.25-38.25C153,170.212,135.788,153,
		114.75,153
			z M114.75,210.375H76.5v-38.25h38.25c11.475,0,19.125,7.65,19.125,19.125S126.225,210.375,114.75,210.375z"/>
		<polygon style="fill:#fff;" points="248.625,210.375 191.25,210.375 191.25,153 172.125,153 172.125,286.875 191.25,286.875 191.25,229.5
			248.625,229.5 248.625,286.875 267.75,286.875 267.75,153 248.625,153 		"/>
		<path style="fill:#fff;" d="M382.5,95.625H57.375C24.862,95.625,0,120.487,0,153v133.875c0,32.513,24.862,57.375,57.375,57.375H382.5
			c32.513,0,57.375-24.862,57.375-57.375V153C439.875,120.487,415.013,95.625,382.5,95.625z M420.75,286.875
			c0,21.037-17.213,38.25-38.25,38.25H57.375c-21.038,0-38.25-17.213-38.25-38.25V153c0-21.038,17.212-38.25,38.25-38.25H382.5
			c21.037,0,38.25,17.212,38.25,38.25V286.875z"/>
		<path style="fill:#fff;" d="M344.25,153h-57.375v38.25v95.625H306V229.5h38.25c21.037,0,38.25-17.213,38.25-38.25
			C382.5,170.212,365.287,153,344.25,153z M344.25,210.375H306v-38.25h38.25c11.475,0,19.125,7.65,19.125,19.125
			S355.725,210.375,344.25,210.375z"/>
	</g>
</g>
</svg>
